<?xml version="1.0" encoding="UTF-8"?>
<svg width="204px" height="283px" viewBox="0 0 204 283" version="1.1" xmlns="http://www.w3.org/2000/svg" xmlns:xlink="http://www.w3.org/1999/xlink">
    <!-- Generator: Sketch 52.5 (67469) - http://www.bohemiancoding.com/sketch -->
    <title>Group 3</title>
    <desc>Created with Sketch.</desc>
    <defs>
        <polygon id="path-1" points="0 0 203.251 0 203.251 282.1078 0 282.1078"></polygon>
    </defs>
    <g id="HOY_Attract" stroke="none" stroke-width="1" fill="none" fill-rule="evenodd">
        <g id="Group-3">
            <mask id="mask-2" fill="white">
                <use xlink:href="#path-1"></use>
            </mask>
            <g id="Clip-2"></g>
            <path d="M102.1675,205.2458 C67.8715,205.2458 43.6825,177.1558 43.6825,143.2288 L43.6825,143.0278 C43.6845,109.4668 66.0665,81.7438 101.0835,81.7438 C135.3795,81.7438 159.5685,109.8348 159.5685,143.7598 L159.5685,143.9588 L159.5685,143.9618 C159.5665,177.5228 137.1845,205.2458 102.1675,205.2458 M159.5685,60.0798 C143.4565,49.3018 123.7205,43.0008 101.8055,43.0008 C79.7775,43.0008 59.9045,49.4748 43.6825,60.4828 L43.6825,60.4318 L43.6825,44.0528 L43.6825,-0.0002 L-0.0005,-0.0002 L-0.0005,143.2288 L-0.0005,143.6858 L-0.0005,143.7598 L-0.0005,143.9588 L-0.0005,144.4158 C-0.0005,178.6688 16.8355,209.0598 43.6825,227.0048 C59.7255,237.7278 79.3435,244.0088 101.0835,244.0088 C123.2875,244.0088 143.2775,237.5098 159.5685,226.4828 L159.5685,226.5568 L159.5685,242.9348 L159.5685,282.1078 L203.2515,282.1078 L203.2515,143.7598 L203.2515,143.6858 L203.2515,143.2288 L203.2515,143.0308 L203.2515,142.9578 C203.2515,108.5138 186.4545,78.0638 159.5685,60.0798" id="Fill-1" fill="#000000" mask="url(#mask-2)"></path>
        </g>
    </g>
</svg>