<?xml version="1.0" encoding="UTF-8"?>
<svg width="183px" height="255px" viewBox="0 0 183 255" version="1.1" xmlns="http://www.w3.org/2000/svg" xmlns:xlink="http://www.w3.org/1999/xlink">
    <!-- Generator: Sketch 52.5 (67469) - http://www.bohemiancoding.com/sketch -->
    <title>Fill 1</title>
    <desc>Created with Sketch.</desc>
    <g id="HOY_Attract" stroke="none" stroke-width="1" fill="none" fill-rule="evenodd">
        <g id="Group-8" transform="translate(0.000000, 0.801800)" fill="#020203">
            <g id="Group-3">
                <path d="M91.6619,75.3384 C71.8289,75.3384 53.9349,81.1254 39.3299,90.9664 L39.3299,0.0004 L-0.0001,0.0004 L-0.0001,165.3444 L-0.0001,165.9964 L-0.0001,254.0004 L39.3299,254.0004 L39.3299,239.8244 L39.3299,165.3444 L39.3299,164.6924 C39.3299,134.6904 59.4829,109.9054 91.0119,109.9054 C121.8909,109.9054 143.6699,135.0164 143.6699,165.3444 L143.6699,165.9964 L143.6699,239.3594 L143.6699,254.0004 L182.9999,254.0004 L182.9999,165.3474 L182.9999,165.3444 L182.9999,164.6924 C182.9999,115.4494 144.3199,75.3384 91.6619,75.3384" id="Fill-1"></path>
            </g>
        </g>
    </g>
</svg>