<?xml version="1.0" encoding="UTF-8"?>
<svg width="185px" height="255px" viewBox="0 0 185 255" version="1.1" xmlns="http://www.w3.org/2000/svg" xmlns:xlink="http://www.w3.org/1999/xlink">
    <!-- Generator: Sketch 52.5 (67469) - http://www.bohemiancoding.com/sketch -->
    <title>Fill 6</title>
    <desc>Created with Sketch.</desc>
    <g id="HOY_Attract" stroke="none" stroke-width="1" fill="none" fill-rule="evenodd">
        <g id="Group-8" transform="translate(-415.000000, -73.198200)" fill="#020203">
            <path d="M507.4099,253.3838 C527.3519,253.3838 545.3429,247.5728 560.0279,237.6928 L560.0279,327.9998 L599.5729,327.9998 L599.5729,163.0138 L599.5729,162.3598 L599.5729,73.9998 L560.0279,73.9998 L560.0279,88.2328 L560.0279,163.0138 L560.0279,163.6688 C560.0279,193.7928 539.7649,218.6768 508.0639,218.6768 C477.0149,218.6768 455.1179,193.4648 455.1179,163.0138 L455.1179,162.3598 L455.1179,88.7008 L455.1179,73.9998 L415.5729,73.9998 L415.5729,163.0108 L415.5729,163.0138 L415.5729,163.6688 C415.5729,213.1108 454.4649,253.3838 507.4099,253.3838" id="Fill-6"></path>
        </g>
    </g>
</svg>